<?xml version="1.0" standalone="no"?>
<!DOCTYPE svg PUBLIC "-//W3C//DTD SVG 20010904//EN"
 "http://www.w3.org/TR/2001/REC-SVG-20010904/DTD/svg10.dtd">
<svg version="1.0" xmlns="http://www.w3.org/2000/svg"
 width="46.000000pt" height="41.000000pt" viewBox="0 0 46.000000 41.000000"
 preserveAspectRatio="xMidYMid meet">

<g transform="translate(0.000000,41.000000) scale(0.100000,-0.100000)"
fill="#000000" stroke="none">
<path d="M178 364 l-47 -44 96 0 c53 0 94 1 92 3 -2 1 -25 21 -49 44 l-45 42
-47 -45z"/>
<path d="M137 304 c-4 -4 -7 -18 -7 -31 0 -19 5 -23 31 -23 27 0 30 3 27 28
-3 26 -34 43 -51 26z m43 -24 c0 -13 -7 -20 -20 -20 -13 0 -20 7 -20 20 0 13
7 20 20 20 13 0 20 -7 20 -20z"/>
<path d="M217 303 c14 -3 23 -13 26 -31 4 -24 4 -24 6 6 1 29 -2 32 -26 31
-23 -1 -24 -2 -6 -6z"/>
<path d="M270 280 c0 -26 3 -30 28 -29 23 2 24 2 5 6 -15 3 -23 12 -23 25 0
15 5 19 20 15 11 -3 20 -1 20 4 0 5 -11 9 -25 9 -21 0 -25 -5 -25 -30z"/>
<path d="M55 250 l-50 -51 48 -41 c31 -25 46 -46 43 -55 -9 -22 3 -36 19 -23
9 8 25 -1 61 -34 l49 -44 49 44 48 44 -92 0 c-68 0 -91 3 -88 12 3 8 18 12 39
10 64 -6 98 71 49 110 -27 22 -49 23 -78 2 -24 -16 -31 -71 -12 -90 7 -7 2
-18 -15 -34 -28 -27 -34 -17 -7 13 9 11 12 17 5 13 -9 -5 -13 16 -15 84 l-3
91 -50 -51z m170 -54 c19 -29 10 -54 -21 -62 -30 -8 -54 11 -54 40 0 47 49 62
75 22z"/>
<path d="M340 205 l0 -98 48 44 c26 24 47 49 47 54 0 6 -21 30 -47 54 l-48 44
0 -98z"/>
<path d="M208 263 c7 -3 16 -2 19 1 4 3 -2 6 -13 5 -11 0 -14 -3 -6 -6z"/>
<path d="M270 212 c0 -15 4 -20 16 -15 9 3 12 9 7 12 -4 3 -11 10 -15 15 -5 5
-8 0 -8 -12z"/>
<path d="M270 140 c0 -26 3 -30 28 -29 23 2 24 2 5 6 -14 3 -23 12 -23 23 0
11 9 20 23 23 19 4 18 4 -5 6 -25 1 -28 -3 -28 -29z"/>
</g>
</svg>
